<?xml version="1.0" encoding="iso-8859-1"?>
<!-- Generator: Adobe Illustrator 19.0.0, SVG Export Plug-In . SVG Version: 6.00 Build 0)  -->
<svg version="1.1" id="Capa_1" xmlns="http://www.w3.org/2000/svg" xmlns:xlink="http://www.w3.org/1999/xlink" x="0px" y="0px"
	 viewBox="0 0 512 512" style="enable-background:new 0 0 512 512;" xml:space="preserve">
<g>
	<g>
		<circle cx="181.333" cy="458.667" r="53.333"/>
	</g>
</g>
<g>
	<g>
		<path d="M509.867,110.933c-2.133-2.133-4.267-4.267-8.533-4.267h-61.867l12.8-12.8c10.667-10.667,17.067-23.467,17.067-38.4
			s-6.4-27.733-17.067-38.4C435.2,0,409.6-4.267,388.267,6.4C386.133,8.533,384,10.667,384,14.933v91.733h-21.333v-96
			C362.667,4.267,358.4,0,352,0h-85.333C260.267,0,256,4.267,256,10.667v96h-21.333V53.333c0-2.133-2.133-6.4-2.133-8.533
			L189.867,2.133C185.6,0,177.067,0,172.8,2.133l-64,64c-2.133,4.267-2.133,12.8,0,17.067l25.6,23.467H96L85.333,51.2
			c-2.133-4.267-6.4-8.533-10.667-8.533h-64C4.267,42.667,0,46.933,0,53.333C0,59.733,4.267,64,10.667,64h55.467l51.2,260.267
			C125.867,358.4,155.733,384,192,384h245.333c6.4,0,10.667-4.267,10.667-10.667c0-6.4-4.267-10.667-10.667-10.667H192
			c-17.067,0-34.133-8.533-42.667-23.467L460.8,296.533c4.267,0,8.533-4.267,8.533-8.533L512,117.333
			C512,117.333,512,113.067,509.867,110.933z"/>
	</g>
</g>
<g>
	<g>
		<circle cx="394.667" cy="458.667" r="53.333"/>
	</g>
</g>
<g>
</g>
<g>
</g>
<g>
</g>
<g>
</g>
<g>
</g>
<g>
</g>
<g>
</g>
<g>
</g>
<g>
</g>
<g>
</g>
<g>
</g>
<g>
</g>
<g>
</g>
<g>
</g>
<g>
</g>
</svg>
